<?xml version="1.0" encoding="UTF-8"?>
<svg version="1.1" xmlns="http://www.w3.org/2000/svg" width="2005" height="464">
<path d="M0 0 C70.0738903 4.53097618 141.05753248 32.04530571 192 81 C192.59458008 81.56734863 193.18916016 82.13469727 193.80175781 82.71923828 C210.7824771 99.00373932 224.20891744 117.33944147 235.6875 137.875 C236.10974854 138.63006836 236.53199707 139.38513672 236.96704102 140.16308594 C238.75962935 143.44519508 240.20284842 146.32325884 241 150 C241.66 150 242.32 150 243 150 C243.23847656 149.18273437 243.47695312 148.36546875 243.72265625 147.5234375 C245.2530465 143.30199405 247.24779617 139.53587948 249.4375 135.625 C250.09576782 134.44732056 250.09576782 134.44732056 250.76733398 133.24584961 C257.71875429 121.01788718 265.79725747 109.63910524 275 99 C275.65871094 98.23042969 276.31742187 97.46085937 276.99609375 96.66796875 C287.71556923 84.44898252 299.16827524 72.957847 312.25683594 63.29443359 C314.03484871 61.97412215 315.78753671 60.6247299 317.5390625 59.26953125 C327.17085374 51.90373811 337.39424987 45.8506106 348 40 C348.72477539 39.59507324 349.44955078 39.19014648 350.19628906 38.77294922 C361.13875592 32.6778694 372.36033407 27.61257836 384 23 C384.73347656 22.70383789 385.46695312 22.40767578 386.22265625 22.10253906 C417.04823507 9.73646384 450.8674284 2.14235134 484 0 C484.28997762 4.60378028 484.57454308 9.20785485 484.85449219 13.81225586 C484.95007695 15.37256488 485.04703939 16.93279023 485.14550781 18.49291992 C485.74525975 28.01245189 486.15128647 37.4573957 486 47 C485.17725586 47.11480713 484.35451172 47.22961426 483.50683594 47.34790039 C437.02060321 53.94322326 389.70542925 66.22028053 351 94 C350.38801758 94.43683105 349.77603516 94.87366211 349.14550781 95.32373047 C339.46542617 102.27249287 330.56347717 109.72118135 322 118 C321.27554687 118.67289062 320.55109375 119.34578125 319.8046875 120.0390625 C301.21029489 137.73008381 286.55788071 162.61589013 279 187 C279.58394531 186.30777344 279.58394531 186.30777344 280.1796875 185.6015625 C288.33769918 176.09014796 297.17532085 167.76382956 307 160 C308.07123058 159.12742797 309.14151088 158.25368828 310.2109375 157.37890625 C356.07770948 120.16373084 424.4934999 92.24484137 484 93 C484.29014373 97.46134573 484.574695 101.92300602 484.85449219 106.38500977 C484.95003242 107.89682181 485.0469921 109.40854495 485.14550781 110.92016602 C485.75529171 120.29403783 486.14785406 129.59997286 486 139 C480.58848101 140.01592319 475.17955017 140.99553682 469.73046875 141.7890625 C418.92686476 149.32316498 367.17496068 168.5079686 329.1484375 204.0078125 C327.19552155 205.8186982 325.18305841 207.49905208 323.125 209.1875 C313.19072685 217.87748036 305.05938866 228.92638904 298 240 C297.60071289 240.62181152 297.20142578 241.24362305 296.79003906 241.88427734 C279.29595151 269.45009757 270.10408025 301.10246884 266.6875 333.4375 C266.61112305 334.14390625 266.53474609 334.8503125 266.45605469 335.578125 C265.69486444 344.06979507 266 352.4183647 266 361 C250.16 361 234.32 361 218 361 C218 355.39 218 349.78 218 344 C217.68631841 339.58805564 217.32763144 335.25896927 216.8125 330.875 C216.6794043 329.72757324 216.54630859 328.58014648 216.40917969 327.39794922 C211.40328075 286.818811 196.52193346 247.4803046 168.2421875 217.39453125 C166.371071 215.39628314 164.61006894 213.36490836 162.875 211.25 C159.59141215 207.40557897 155.88935823 204.21877922 152 201 C151.24831543 200.36384766 151.24831543 200.36384766 150.48144531 199.71484375 C121.10298275 174.91327277 85.89018048 159.06695555 49 149 C48.14019531 148.76442383 47.28039063 148.52884766 46.39453125 148.28613281 C32.26620179 144.49441805 17.97405446 142.32742231 3.48583984 140.40136719 C1 140 1 140 -2 139 C-2.14729622 128.65448632 -1.69911267 118.44043093 -1 108.125 C-0.90323103 106.64716252 -0.80687483 105.16929795 -0.7109375 103.69140625 C-0.47869307 100.12728072 -0.24094489 96.56354922 0 93 C58.23374861 91.4787422 126.97848641 120.21870973 172 156 C173.34384766 157.05574219 173.34384766 157.05574219 174.71484375 158.1328125 C184.69069945 166.11922209 194.08942762 174.84267331 203 184 C203.66 184.66 204.32 185.32 205 186 C190.85468775 151.05054499 170.542966 121.57904077 140 99 C138.99710938 98.25234375 137.99421875 97.5046875 136.9609375 96.734375 C96.15479456 67.42143511 47.30352897 53.31701465 -2 47 C-2.15069741 36.49094898 -1.68702058 26.10552207 -1 15.625 C-0.90324408 14.09898375 -0.80688783 12.57294211 -0.7109375 11.046875 C-0.47854496 7.36428036 -0.24081623 3.68205456 0 0 Z " fill="#FA5003" transform="translate(2,84)"/>
<path d="M0 0 C6.88944123 6.08896394 12.14783977 12.61693662 17.48999023 20.09594727 C17.81999023 5.57594727 18.14999023 -8.94405273 18.48999023 -23.90405273 C33.99999023 -23.90405273 49.50999023 -23.90405273 65.48999023 -23.90405273 C65.48999023 65.19594727 65.48999023 154.29594727 65.48999023 246.09594727 C49.97999023 246.09594727 34.46999023 246.09594727 18.48999023 246.09594727 C18.15999023 231.24594727 17.82999023 216.39594727 17.48999023 201.09594727 C14.18999023 205.38594727 10.88999023 209.67594727 7.48999023 214.09594727 C-13.43868944 236.95226849 -41.93843427 249.56118431 -72.85522461 251.22192383 C-108.30225964 252.36654503 -141.08210607 242.72380322 -167.33203125 218.18481445 C-194.59114366 192.07955104 -208.82539509 155.21811474 -209.71313477 117.76782227 C-210.15228197 79.19235377 -202.4559995 42.78865032 -176.51000977 13.09594727 C-175.89899414 12.34055664 -175.28797852 11.58516602 -174.65844727 10.80688477 C-154.70809481 -13.2184333 -123.59806456 -25.48508666 -93.24487305 -28.38867188 C-58.91786935 -31.31558959 -26.29993801 -22.58488032 0 0 Z M-130.51000977 32.09594727 C-131.33114258 32.72500977 -132.15227539 33.35407227 -132.99829102 34.00219727 C-150.47911339 48.5740803 -160.1794839 73.97836041 -162.51000977 96.09594727 C-163.81764821 126.65813479 -160.13745062 154.4618764 -140.51000977 179.09594727 C-139.84356445 179.9402832 -139.17711914 180.78461914 -138.49047852 181.65454102 C-125.46013401 197.15073921 -105.6565333 207.82260414 -85.51000977 210.09594727 C-57.74691617 212.07438696 -33.70118434 206.72309585 -12.09985352 188.42407227 C6.63529194 171.58222205 17.31267255 146.83381019 18.66577148 121.8503418 C19.86187157 90.67911916 14.56287291 63.19677814 -6.51000977 39.09594727 C-7.3975293 38.0653418 -7.3975293 38.0653418 -8.30297852 37.01391602 C-22.25393937 21.93260013 -45.06620239 11.91506476 -65.51000977 11.09594727 C-67.02401367 11.01860352 -67.02401367 11.01860352 -68.56860352 10.93969727 C-91.45683079 10.31618143 -112.84093285 17.4939554 -130.51000977 32.09594727 Z " fill="#FA5003" transform="translate(1939.510009765625,128.904052734375)"/>
<path d="M0 0 C1.55081651 1.32267987 3.09285571 2.65573523 4.625 4 C5.76001953 4.92039062 5.76001953 4.92039062 6.91796875 5.859375 C27.40158389 22.92317832 37.08441691 50.1517147 39.625 76 C39.70907894 78.57213986 39.74707197 81.14609144 39.74525452 83.71960449 C39.74653615 84.82016607 39.74653615 84.82016607 39.74784368 85.94296122 C39.74947826 88.37801537 39.74401055 90.81299917 39.73852539 93.24804688 C39.73824306 95.00289915 39.73840216 96.75775155 39.7389679 98.51260376 C39.73925406 103.25992293 39.73338654 108.00721668 39.72639394 112.75452995 C39.72013032 117.7219721 39.71955422 122.68941487 39.71836853 127.65686035 C39.71526408 137.05599725 39.70706264 146.45512248 39.69701904 155.85425425 C39.68583038 166.55798302 39.68034052 177.26171235 39.67532361 187.96544552 C39.66487928 209.97697163 39.64654482 231.98848176 39.625 254 C24.775 254 9.925 254 -5.375 254 C-5.39687378 246.64388428 -5.39687378 246.64388428 -5.41918945 239.13916016 C-5.4696491 222.89025529 -5.53611668 206.64144455 -5.61071491 190.39263344 C-5.65553252 180.54627178 -5.69497891 170.69994516 -5.72143555 160.85351562 C-5.74452998 152.26362012 -5.77805389 143.67383682 -5.82370156 135.08403051 C-5.84748067 130.54282664 -5.86630908 126.00173283 -5.87261391 121.46046829 C-5.87873496 117.17090905 -5.89898196 112.88163086 -5.92927551 108.59217644 C-5.9379449 107.03235146 -5.94180192 105.47248957 -5.94000816 103.91264153 C-5.93350571 95.63607981 -6.39068005 87.63043479 -7.73014832 79.45297241 C-7.84828489 78.7314161 -7.96642146 78.00985978 -8.08813792 77.26643813 C-11.11330856 60.35232497 -19.00709017 45.02394755 -32.375 34 C-51.48068204 20.81569157 -74.32417291 17.14362033 -97.1640625 20.61328125 C-115.07438709 24.0388975 -130.33936169 33.23240044 -141.25 47.875 C-150.37777546 61.97752414 -155.44414643 78.33463304 -155.53321838 95.14378357 C-155.53815636 95.82763424 -155.54309434 96.5114849 -155.54818195 97.21605831 C-155.56343763 99.48835628 -155.57188488 101.76062627 -155.58032227 104.03295898 C-155.58991019 105.66944114 -155.5999208 107.30592087 -155.61032104 108.94239807 C-155.63727708 113.37157877 -155.6583368 117.80077001 -155.67832303 122.22998691 C-155.70024018 126.86379831 -155.72760076 131.49757752 -155.75437927 136.13136292 C-155.80422886 144.90010566 -155.84919629 153.66886634 -155.89240164 162.43764406 C-155.94184023 172.42312739 -155.99673374 182.4085784 -156.05208123 192.39403045 C-156.16578252 212.92932494 -156.27192719 233.46464923 -156.375 254 C-171.555 254 -186.735 254 -202.375 254 C-202.375 164.9 -202.375 75.8 -202.375 -16 C-187.195 -16 -172.015 -16 -156.375 -16 C-156.045 -4.78 -155.715 6.44 -155.375 18 C-152.405 14.37 -149.435 10.74 -146.375 7 C-133.62943035 -5.76249603 -117.62509221 -13.39588286 -100.375 -18 C-99.70984375 -18.17789063 -99.0446875 -18.35578125 -98.359375 -18.5390625 C-66.2019362 -26.64273708 -26.44451141 -20.74877049 0 0 Z " fill="#FA5003" transform="translate(1190.375,121)"/>
<path d="M0 0 C17.27429501 16.18802799 23.57953111 36.56124824 25.359375 59.69921875 C10.179375 59.69921875 -5.000625 59.69921875 -20.640625 59.69921875 C-22.620625 51.77921875 -22.620625 51.77921875 -24.640625 43.69921875 C-26.56479317 39.97637163 -28.21219062 36.99014494 -30.640625 33.69921875 C-31.08019531 33.06757813 -31.51976562 32.4359375 -31.97265625 31.78515625 C-40.18150054 21.0450545 -53.48776873 16.75723016 -66.2421875 14.171875 C-68.39032632 13.88675839 -70.47468665 13.75346408 -72.640625 13.69921875 C-73.53652344 13.66054687 -74.43242188 13.621875 -75.35546875 13.58203125 C-91.91271252 13.19040131 -108.99641902 16.2439797 -121.640625 27.69921875 C-128.2454405 35.56732536 -130.11806996 42.97469705 -129.95703125 53.15234375 C-129.17524767 61.91604119 -125.32823464 68.7420256 -118.66015625 74.37109375 C-102.5293764 86.5840125 -81.10118874 91.46589191 -61.984375 96.890625 C-49.65868836 100.38915727 -37.40935495 103.91150762 -25.390625 108.38671875 C-24.45790771 108.73081787 -23.52519043 109.07491699 -22.56420898 109.42944336 C-3.29277404 116.82134646 13.58239932 129.24693686 22.54296875 148.203125 C29.63492739 164.80298424 29.74145629 184.81618579 23.359375 201.69921875 C14.7039906 223.11047592 -2.83026462 236.80446794 -23.640625 245.69921875 C-55.41776249 258.56672161 -95.4967538 256.86558849 -126.90039062 243.75585938 C-148.21055291 234.24883239 -167.47892443 218.73292413 -176.46337891 196.6796875 C-180.06888808 186.97843325 -181.640625 179.1798567 -181.640625 168.69921875 C-166.130625 168.69921875 -150.620625 168.69921875 -134.640625 168.69921875 C-133.650625 172.65921875 -132.660625 176.61921875 -131.640625 180.69921875 C-125.72002612 194.51394948 -116.16105562 203.07127219 -102.48828125 209.0859375 C-99.55784485 210.12179478 -96.65980372 210.96372568 -93.640625 211.69921875 C-92.73441406 211.92222656 -91.82820313 212.14523437 -90.89453125 212.375 C-73.20862717 215.98086394 -50.70300646 215.23018775 -35.2421875 205.1328125 C-27.21159143 199.16989482 -21.01004453 192.65342816 -18.640625 182.69921875 C-17.5671579 173.38914895 -17.93722883 165.38335103 -23.640625 157.69921875 C-38.02558825 140.30262527 -69.31441115 136.30130363 -90.02853394 130.56164551 C-101.40776308 127.40146928 -112.6246939 123.976375 -123.640625 119.69921875 C-124.35589355 119.42400391 -125.07116211 119.14878906 -125.80810547 118.86523438 C-145.3956144 111.19997432 -162.99290834 98.63001287 -171.8828125 78.94921875 C-179.05920561 60.51060286 -178.53106734 40.72074193 -171.35546875 22.421875 C-161.68289482 1.48708408 -142.73313662 -11.49562277 -121.640625 -19.30078125 C-80.98051422 -32.67813371 -33.00300433 -28.75557626 0 0 Z " fill="#FA5003" transform="translate(1438.640625,126.30078125)"/>
<path d="M0 0 C16.83 0 33.66 0 51 0 C66.88717433 40.66533613 82.67648071 81.36773567 98.38900757 122.1008606 C105.05668088 139.38563102 111.73811341 156.66499561 118.4375 173.9375 C119.01842407 175.43531006 119.01842407 175.43531006 119.61108398 176.96337891 C121.79339516 182.58968642 121.79339516 182.58968642 123.9781189 188.21505737 C125.67633106 192.58482431 127.36923605 196.95649666 129.05126953 201.33251953 C129.37555435 202.17359756 129.69983917 203.0146756 130.03395081 203.88124084 C130.64461285 205.46540454 131.25323381 207.05035705 131.85948181 208.63621521 C132.99581039 212.07607133 132.99581039 212.07607133 135 215 C135.19362122 214.48906799 135.38724243 213.97813599 135.58673096 213.45172119 C144.96126392 188.71747608 154.36654697 163.99560907 163.875 139.3125 C170.82057529 121.28180018 177.73747609 103.24045787 184.625 85.1875 C185.49909885 82.89664486 186.37320363 80.60579198 187.24731445 78.31494141 C187.67727219 77.18810944 188.10722992 76.06127747 188.55021667 74.90029907 C189.19244926 73.21715103 189.19244926 73.21715103 189.84765625 71.5 C190.48668633 69.82519058 190.48668633 69.82519058 191.1386261 68.11654663 C195.38137607 56.99812538 199.62987636 45.88190921 203.88372803 34.76773071 C204.65879027 32.74242763 205.43357851 30.71701966 206.20806885 28.6914978 C207.27468965 25.9021203 208.34228942 23.11311943 209.41015625 20.32421875 C209.71650497 19.52254272 210.0228537 18.7208667 210.33848572 17.89489746 C211.92728103 13.74907968 213.53448093 9.61056344 215.16186523 5.47973633 C215.48912094 4.6473494 215.81637665 3.81496246 216.15354919 2.95735168 C217 1 217 1 218 0 C219.47354348 -0.09304018 220.95150591 -0.11746265 222.42797852 -0.11352539 C223.36887833 -0.11344986 224.30977814 -0.11337433 225.27919006 -0.11329651 C226.30209641 -0.10813522 227.32500275 -0.10297394 228.37890625 -0.09765625 C229.42070541 -0.0962413 230.46250458 -0.09482635 231.53587341 -0.09336853 C234.87811094 -0.0877508 238.22028257 -0.0751953 241.5625 -0.0625 C243.82226466 -0.05748728 246.08203037 -0.05292398 248.34179688 -0.04882812 C253.89455391 -0.03777561 259.44727225 -0.02102024 265 0 C261.94875082 10.45301598 261.94875082 10.45301598 259.890625 15.5 C259.27247925 17.02935181 259.27247925 17.02935181 258.6418457 18.58959961 C258.18253662 19.71503174 257.72322754 20.84046387 257.25 22 C256.16281384 24.68777437 255.07957601 27.377137 253.99609375 30.06640625 C253.69289719 30.81789444 253.38970062 31.56938263 253.07731628 32.34364319 C248.9322373 42.62871879 244.85663346 52.94146127 240.77282715 63.25097656 C239.29205287 66.98911777 237.81070268 70.72703021 236.32910156 74.46484375 C236.078873 75.09612749 235.82864445 75.72741123 235.57083321 76.37782478 C235.06087254 77.66436111 234.55090918 78.95089637 234.04094315 80.23743057 C233.2651545 82.19463568 232.48942851 84.15186561 231.7137146 86.10910034 C226.50292364 99.25626362 221.28640178 112.40115103 216.06936646 125.5458374 C213.44449626 132.15939089 210.81985914 138.77303686 208.1953125 145.38671875 C207.93648096 146.03895668 207.67764942 146.69119461 207.4109745 147.36319733 C201.73012154 161.67876124 196.0521312 175.99545973 190.375 190.3125 C189.90350525 191.50154938 189.4320105 192.69059875 188.94622803 193.91567993 C185.63070847 202.27707626 182.31533631 210.63853102 179 219 C175.68320992 227.36513548 172.36635936 235.73024698 169.04937744 244.0953064 C168.1038309 246.47991748 167.15831469 248.86454058 166.21282959 251.24917603 C160.84576191 264.78558258 155.47625975 278.32101565 150.10190964 291.85453224 C149.24517051 294.01201926 148.38851428 296.16953917 147.53189087 298.32707214 C147.251071 299.03435739 146.97025112 299.74164263 146.68092155 300.47036076 C146.11714214 301.89032871 145.55336675 303.31029827 144.98959541 304.73026943 C143.62536653 308.16622124 142.26088538 311.60207243 140.89581299 315.03768921 C139.37781226 318.85820303 137.86063744 322.679044 136.34375 326.5 C135.87311127 327.68499588 135.40247253 328.86999176 134.91757202 330.09089661 C131.89700354 337.70674406 128.90647715 345.33360728 125.99060059 352.99023438 C124.10756107 357.89243893 124.10756107 357.89243893 123 359 C121.52645652 359.09304018 120.04849409 359.11746265 118.57202148 359.11352539 C117.63112167 359.11344986 116.69022186 359.11337433 115.72080994 359.11329651 C114.69790359 359.10813522 113.67499725 359.10297394 112.62109375 359.09765625 C111.058395 359.09553383 111.058395 359.09553383 109.46412659 359.09336853 C106.12188906 359.0877508 102.77971743 359.0751953 99.4375 359.0625 C97.17773534 359.05748728 94.91796963 359.05292398 92.65820312 359.04882812 C87.10544609 359.03777561 81.55272775 359.02102024 76 359 C76.83408366 354.41412606 78.3796519 350.3351459 80.18359375 346.0546875 C80.51025024 345.2693866 80.83690674 344.48408569 81.17346191 343.67498779 C82.2570677 341.07312921 83.34724655 338.47407925 84.4375 335.875 C85.20619325 334.03320004 85.97449681 332.1912374 86.74243164 330.34912109 C88.75656109 325.52104372 90.7763749 320.69536637 92.79785156 315.87036133 C94.33113484 312.20935168 95.86173258 308.54722279 97.39221191 304.88504028 C101.09998681 296.01324404 104.8142235 287.14416766 108.53161621 278.27639771 C111.36749897 271.51090268 114.20004961 264.74401821 117.03125 257.9765625 C117.86075711 255.9939773 118.69026556 254.01139266 119.51977539 252.02880859 C120.71707273 249.16714544 121.91430494 246.30545515 123.11129761 243.44366455 C124.20803317 240.82170085 125.30514775 238.19989605 126.40234375 235.578125 C126.72340088 234.81029694 127.04445801 234.04246887 127.37524414 233.25137329 C127.6780127 232.52807831 127.98078125 231.80478333 128.29272461 231.05957031 C128.55153915 230.44092102 128.8103537 229.82227173 129.07701111 229.18487549 C130.37255321 226.11810166 131.68856633 223.06001189 133 220 C111.22 219.505 111.22 219.505 89 219 C84.50017071 210.00034141 84.50017071 210.00034141 82.87548828 205.99169922 C82.50546692 205.08332809 82.13544556 204.17495697 81.75421143 203.23905945 C81.36352478 202.27071671 80.97283813 201.30237396 80.5703125 200.3046875 C80.14772156 199.26484207 79.72513062 198.22499664 79.28973389 197.15364075 C77.89855274 193.72861085 76.51181834 190.30179846 75.125 186.875 C74.14243045 184.45404468 73.15951432 182.03322999 72.17626953 179.61254883 C70.39032584 175.21523283 68.60538865 170.81751108 66.82179832 166.41924 C62.3079153 155.28851899 57.77597062 144.16517099 53.24234009 133.04248047 C51.86644855 129.66651769 50.49112974 126.29032212 49.1159668 122.9140625 C44.71973081 112.12136388 40.31960035 101.33027841 35.91015625 90.54296875 C27.47399129 69.9038848 19.05298738 49.25861058 10.68118286 28.59332275 C9.73174774 26.25100352 8.78113671 23.90916057 7.82931519 21.56781006 C6.51307199 18.32910275 5.20125385 15.08863884 3.890625 11.84765625 C3.49482742 10.87624191 3.09902985 9.90482758 2.6912384 8.90397644 C2.15619942 7.5768438 2.15619942 7.5768438 1.61035156 6.22290039 C1.29761292 5.45136124 0.98487427 4.67982208 0.66265869 3.88490295 C0 2 0 2 0 0 Z " fill="#FA5003" transform="translate(1475,105)"/>
<path d="M0 0 C64.35 0 128.7 0 195 0 C195 12.21 195 24.42 195 37 C145.83 37 96.66 37 46 37 C46 74.95 46 112.9 46 152 C85.93 152 125.86 152 167 152 C167 164.21 167 176.42 167 189 C127.07 189 87.14 189 46 189 C46 239.82 46 290.64 46 343 C30.82 343 15.64 343 0 343 C0 229.81 0 116.62 0 0 Z " fill="#FA5003" transform="translate(677,32)"/>
<path d="M0 0 C14.85 0 29.7 0 45 0 C45 89.1 45 178.2 45 270 C30.15 270 15.3 270 0 270 C0 180.9 0 91.8 0 0 Z " fill="#FA5003" transform="translate(903,105)"/>
<path d="M0 0 C13.16503809 9.41390395 20.56959894 21.8893285 24.4375 37.38671875 C27.06322603 54.20622791 23.3764359 69.82016034 13.91796875 83.921875 C4.55766361 96.25343296 -8.47261738 104.04407023 -23.71484375 106.6484375 C-41.32075861 108.65138572 -57.02847165 104.61828679 -71.0234375 93.6640625 C-81.86102654 84.31916865 -90.14755493 70.49349715 -91.3125 55.99755859 C-92.17992106 39.5057156 -89.37003472 24.16363142 -78.30712891 11.28344727 C-57.90566221 -11.26423959 -26.01284647 -16.12933752 0 0 Z " fill="#FA5003" transform="translate(277.1484375,27.9609375)"/>
<path d="M0 0 C7.59445446 5.53551347 13.16998579 11.55047206 15 21 C15.80409919 32.32329836 14.99544969 40.38951656 7.625 49.3125 C2.35129715 54.96851819 -3.25418787 58.47607209 -11.04296875 59.3359375 C-21.05684322 59.46033346 -30.04295369 57.81631758 -37.50390625 50.6953125 C-44.07927497 43.24437249 -46.51396543 35.43371819 -46.2421875 25.57421875 C-45.42140022 16.85004431 -42.16413262 10.22565091 -36 4 C-26.18999141 -3.90197155 -11.30493559 -6.25632162 0 0 Z " fill="#FA5003" transform="translate(941,3)"/>
</svg>
